# xmcd
# 
# Track frame offsets:
#	150
#	13430
#	25912
#	38215
#	48675
#	59095
#	69975
#	81525
#	93200
#	108250
#	119775
#	131937
#	142350
#	154350
#	168600
#	178950
#
# Disc length: 2544 seconds
#
# Revision: 1
# Processed by: cddbd v1.4PL0 Copyright (c) Steve Scherf et al.
# Submitted via: Audio-CD-Archiv 2.10.451
#
DISCID=0309ee10
DTITLE=Various Artist - Country Hits Vol.1
DYEAR=1900
DGENRE=country
TTITLE0=Lynn Anderson - Rose Garden
TTITLE1=Don Williams Feat. The Poso Seco Singers - Apartment Number 9
TTITLE2=Melba Montgomery - Silver Threads And Golden Needles
TTITLE3=Faron Young - Hello Walls
TTITLE4=Wanda Jackson - It's Only Make Believe
TTITLE5=Ferlin Husky - Wings Of A Dove
TTITLE6=Wanda Jackson - In The Middle Of A Heartache
TTITLE7=Sammi Smith - Help Me Make It Through The Night
TTITLE8=Jeannie C. Riley - Harper Valley P.T.A.
TTITLE9=Bobby G. Rice - Sugar Shack
TTITLE10=Jeannie C. Riley - Country Girl
TTITLE11=Johnny Russell - Jambalaya (On The Bayou)
TTITLE12=Don Williams - Follow Me Back To Louisville
TTITLE13=Bob Luman - Lonely Woman Make Good Lovers
TTITLE14=Bobby Fare - West Virginia Woman
TTITLE15=Barbara Fairchild - Color My World
EXTD=
EXTT0=
EXTT1=
EXTT2=
EXTT3=
EXTT4=
EXTT5=
EXTT6=
EXTT7=
EXTT8=
EXTT9=
EXTT10=
EXTT11=
EXTT12=
EXTT13=
EXTT14=
EXTT15=
PLAYORDER=
